<?xml version="1.0" standalone="no"?><!DOCTYPE svg PUBLIC "-//W3C//DTD SVG 1.1//EN" "http://www.w3.org/Graphics/SVG/1.1/DTD/svg11.dtd"><svg t="1637558759884" class="icon" viewBox="0 0 1024 1024" version="1.1" xmlns="http://www.w3.org/2000/svg" p-id="5060" xmlns:xlink="http://www.w3.org/1999/xlink" width="32" height="32"><defs><style type="text/css"></style></defs><path d="M650.602667 763.370667a170.624 170.624 0 0 0 33.194666 54.784L512 917.333333l-171.776-99.2a170.624 170.624 0 0 0 33.173333-54.762666L512 843.413333l138.602667-80.042666zM214.336 597.333333a106.666667 106.666667 0 1 1 0 213.333334 106.666667 106.666667 0 0 1 0-213.333334z m597.333333 0a106.666667 106.666667 0 1 1 0 213.333334 106.666667 106.666667 0 0 1 0-213.333334z m-597.333333 64a42.666667 42.666667 0 1 0 0 85.333334 42.666667 42.666667 0 0 0 0-85.333334z m597.333333 0a42.666667 42.666667 0 1 0 0 85.333334 42.666667 42.666667 0 0 0 0-85.333334zM349.184 243.328a170.282667 170.282667 0 0 0 30.421333 56.362667l-136.170666 78.592v157.696a171.712 171.712 0 0 0-64 0.725333V341.333333l169.749333-98.005333z m325.632 0L844.544 341.333333v195.370667a171.456 171.456 0 0 0-64-0.725333v-157.696l-136.149333-78.592a170.282667 170.282667 0 0 0 30.421333-56.362667zM513.002667 85.333333a106.666667 106.666667 0 1 1 0 213.333334 106.666667 106.666667 0 0 1 0-213.333334z m0 64a42.666667 42.666667 0 1 0 0 85.333334 42.666667 42.666667 0 0 0 0-85.333334z"  p-id="5061"></path></svg>