<?xml version="1.0" standalone="no"?><!DOCTYPE svg PUBLIC "-//W3C//DTD SVG 1.1//EN" "http://www.w3.org/Graphics/SVG/1.1/DTD/svg11.dtd"><svg t="1637559391503" class="icon" viewBox="0 0 1060 1024" version="1.1" xmlns="http://www.w3.org/2000/svg" p-id="7343" xmlns:xlink="http://www.w3.org/1999/xlink" width="33.125" height="32"><defs><style type="text/css"></style></defs><path d="M829.546298 933.611626a38.656886 38.656886 0 0 1-20.692596 7.972319L738.768166 947.873218l7.795156-56.408581a26.184637 26.184637 0 0 1 9.921107-16.653288l244.342699-196.473356c13.60609-10.948651 35.574256-10.948651 49.180346 0l7.653426 6.147543V45.583945C1057.6609 20.391419 1032.220346 0 1000.968858 0H56.692042C25.369689 0 0 20.391419 0 45.583945v930.440415c0 25.192526 25.369689 45.583945 56.692042 45.583944h944.276816c31.322353 0 56.692042-20.391419 56.692042-45.583944V750.354602zM179.997232 194.435986c0-13.552941 13.60609-24.501592 30.471972-24.501592h642.03737c16.865882 0 30.471972 10.948651 30.471973 24.501592s-13.60609 24.501592-30.471973 24.501592H210.469204c-16.724152 0-30.471972-11.054948-30.471972-24.501592z m0 158.985744c0-13.552941 13.60609-24.501592 30.471972-24.501592h642.03737c16.865882 0 30.471972 10.948651 30.471973 24.501592s-13.60609 24.501592-30.471973 24.501592H210.469204c-16.724152 0-30.471972-10.930934-30.471972-24.501592z m0 159.109758c0-13.570657 13.60609-24.501592 30.471972-24.501592h642.03737c16.865882 0 30.471972 10.930934 30.471973 24.501592s-13.60609 24.501592-30.471973 24.501592H210.469204c-16.724152 0-30.471972-10.948651-30.471972-24.501592z m508.456747 384.442906c-6.094394 3.543253-12.897439 7.511696-19.983944 11.515571-43.652872 24.395294-60.943945 29.745606-74.408305 29.745606h-1.771626l-4.818824-0.106298-4.606228-1.435017c-8.503806-2.497993-27.92083-11.391557-25.511419-38.072249 0.850381-8.858131 3.684983-18.690657 6.803045-29.072388a211.053841 211.053841 0 0 0 6.661315-26.574394v-0.124014c0.28346-2.055087-2.692872-3.188927-4.535363-1.771626-10.488028 8.096332-23.243737 20.178824-31.322353 27.92083-14.03128 13.340346-28.629481 27.247612-43.227682 36.920692-31.038893 20.62173-54.920415 16.529273-69.306021 9.460485-20.409135-10.027405-29.338131-28.82436-26.928719-56.071973 1.559031-17.432803 7.511696-37.204152 13.180899-56.071972a353.917785 353.917785 0 0 0 9.495917-36.017163c0.28346-1.771626-1.984221-3.188927-4.110173-2.391695-15.590311 6.377855-44.290657 22.676817-91.132456 64.965536-25.653149 23.243737-48.896886 47.072111-63.920277 63.016748-9.921107 10.629758-28.487751 12.879723-41.810381 5.314879-14.03128-7.972318-17.149343-23.70436-6.803045-34.759308 16.157232-17.202491 41.38519-43.068235 69.731211-68.491073 74.408304-66.56 125.998062-91.522215 167.524983-80.573564 13.46436 3.543253 35.574256 14.704498 32.314464 49.924429-1.417301 14.93481-6.519585 32.137301-12.047059 50.491349-4.251903 14.17301-8.645536 28.718062-10.629758 41.030866-0.28346 1.488166-0.42519 2.852318-0.56692 4.21647-0.28346 2.161384 2.976332 3.419239 4.818823 1.771626 9.070727-7.511696 19.487889-17.326505 26.92872-24.377577 13.74782-13.110035 28.062561-26.680692 42.519031-36.477786 23.385467-15.944637 45.778824-20.515433 66.329688-13.446644 13.1809 4.570796 35.149066 16.865882 35.007336 48.772872 0 10.027405-2.267682 20.515433-4.818823 30.649135-0.56692 2.055087 2.267682 3.543253 4.393633 2.391696 6.661315-3.755848 13.60609-7.759723 20.550865-11.728166 13.32263-7.866021 31.889273-5.704637 42.093841 4.677093 10.346298 10.824637 7.511696 26.574394-6.236125 34.759308z m0 0" fill="" p-id="7344"></path></svg>