<?xml version="1.0" standalone="no"?><!DOCTYPE svg PUBLIC "-//W3C//DTD SVG 1.1//EN" "http://www.w3.org/Graphics/SVG/1.1/DTD/svg11.dtd"><svg t="1637559091608" class="icon" viewBox="0 0 1024 1024" version="1.1" xmlns="http://www.w3.org/2000/svg" p-id="6198" xmlns:xlink="http://www.w3.org/1999/xlink" width="32" height="32"><defs><style type="text/css"></style></defs><path d="M563.085479 1024a245.976582 245.976582 0 0 0 212.771021-243.166881A245.721155 245.721155 0 0 0 563.085479 538.687948v-45.976931a247.509146 247.509146 0 1 0-67.432832 0V538.687948a245.2103 245.2103 0 0 0 0 485.312052M453.762554 202.290068V155.546855a242.656026 242.656026 0 0 0 78.160783-38.31411h33.971843v261.813081H512V178.279893a100.382966 100.382966 0 0 1-26.819877 15.325644 131.800536 131.800536 0 0 1-31.672997 8.684531z m-102.170958 578.543051a178.799177 178.799177 0 1 1 178.799176 178.799177 178.799177 178.799177 0 0 1-178.799176-178.799177z" p-id="6199"></path><path d="M614.170958 866.401297h-108.045788a28.352441 28.352441 0 0 1 8.939959-17.369063A229.884656 229.884656 0 0 1 549.803255 819.658083 264.111927 264.111927 0 0 0 588.628219 787.985086a102.170958 102.170958 0 0 0 18.390772-29.118723 87.356169 87.356169 0 0 0 7.151967-34.482698 67.432832 67.432832 0 0 0-22.477611-53.639753 86.33446 86.33446 0 0 0-60.536292-19.66791 134.610238 134.610238 0 0 0-75.095655 21.711329v47.509496a95.018991 95.018991 0 0 1 63.090567-25.54274q37.547827 0 37.547827 34.482698a51.085479 51.085479 0 0 1-9.961668 30.140433A148.403317 148.403317 0 0 1 512 791.050215a240.101752 240.101752 0 0 0-39.846674 33.460989 116.985747 116.985747 0 0 0-20.178764 30.906715 88.633306 88.633306 0 0 0-7.407394 36.27069v18.901627H614.170958z" p-id="6200"></path></svg>